<svg width="56" height="56" viewBox="0 0 56 56" fill="none" xmlns="http://www.w3.org/2000/svg">
<g filter="url(#filter0_d_309_184)">
<circle cx="28" cy="24" r="24" fill="white"/>
</g>
<path d="M40.0993 30.912C39.6385 30.72 39.1265 30.72 38.6657 30.912L35.3729 32.3104C35.4721 31.328 34.7649 30.4448 33.7825 30.3488C33.7217 30.3392 33.6641 30.3392 33.6001 30.3392H29.6449C29.2417 30.3392 28.8545 30.2496 28.4961 30.0704C26.8417 29.2512 25.0209 28.8192 23.1713 28.8096H21.8817C21.8817 28.5312 21.6513 28.2976 21.3697 28.2976H14.7393V29.3184H20.8545V35.4336H14.7393V36.4544H21.3665C21.6449 36.4544 21.8785 36.224 21.8785 35.9424V35.7504L25.6833 37.3312C27.7537 38.1856 30.0769 38.2048 32.1729 37.4016L40.0513 34.3968C40.5217 34.2144 40.8897 33.8656 41.0913 33.4048C41.3025 32.944 41.3121 32.4128 41.1201 31.9424C40.9281 31.4848 40.5665 31.1136 40.0993 30.912ZM40.1473 33.008C40.0577 33.2192 39.8881 33.376 39.6769 33.4592L31.7985 36.464C29.9489 37.1744 27.8913 37.1552 26.0609 36.4032L21.8657 34.6624V29.84H23.1553C24.8481 29.84 26.5089 30.2432 28.0193 30.9888C28.5185 31.2384 29.0689 31.3664 29.6289 31.3664H33.5841C34.0065 31.3664 34.3457 31.7056 34.3457 32.128C34.3457 32.5408 34.0257 32.88 33.6161 32.8896C33.5969 32.8896 33.5777 32.8896 33.5553 32.8896H27.4689V33.9104H33.5553C33.5649 33.9104 33.5745 33.9104 33.5841 33.9104C33.6225 33.9104 33.6545 33.9104 33.6929 33.9104C34.0705 33.8912 34.4449 33.8112 34.7937 33.6608L39.0593 31.8496C39.2609 31.76 39.4913 31.76 39.7025 31.8496C39.9137 31.9392 40.0801 32.1088 40.1633 32.32C40.2561 32.544 40.2465 32.7968 40.1473 33.008Z" fill="#0070AA"/>
<path d="M28.0065 18.9792L27.0657 18.0384C25.8721 16.8704 23.9489 16.88 22.7809 18.0672C21.6225 19.2512 21.6225 21.1392 22.7809 22.3232L27.6449 27.1872C27.8465 27.3888 28.1665 27.3888 28.3649 27.1872L33.2289 22.3232C34.3969 21.1296 34.3873 19.2064 33.2001 18.0384C32.0161 16.88 30.1281 16.88 28.9441 18.0384L28.0065 18.9792ZM31.0881 18.1696C32.1985 18.1696 33.1009 19.072 33.1009 20.1824C33.1009 20.7136 32.8897 21.2224 32.5121 21.6064L28.0065 26.112L23.5009 21.6064C22.7009 20.8256 22.6913 19.5552 23.4625 18.7648C24.2433 17.9648 25.5137 17.9552 26.3041 18.7264C26.3137 18.736 26.3233 18.7456 26.3425 18.7648L27.6449 20.0672C27.8465 20.2688 28.1665 20.2688 28.3649 20.0672L29.6673 18.7648C30.0385 18.3808 30.5473 18.1696 31.0881 18.1696Z" fill="#0070AA"/>
<path d="M28.0065 10.0064C21.2577 10.0064 15.7697 15.4944 15.7697 22.2432C15.7697 23.696 16.0289 25.1392 16.5313 26.4992L17.4817 26.1504C17.0209 24.8992 16.7809 23.5776 16.7809 22.2432C16.7809 16.0544 21.8177 11.0272 27.9969 11.0272C34.1857 11.0272 39.2129 16.064 39.2129 22.2432C39.2129 24.5056 38.5313 26.72 37.2513 28.5792L38.0897 29.1584C39.4881 27.1264 40.2305 24.7168 40.2305 22.2432C40.2369 15.4944 34.7489 10.0064 28.0065 10.0064Z" fill="#0070AA"/>
<defs>
<filter id="filter0_d_309_184" x="0" y="0" width="56" height="56" filterUnits="userSpaceOnUse" color-interpolation-filters="sRGB">
<feFlood flood-opacity="0" result="BackgroundImageFix"/>
<feColorMatrix in="SourceAlpha" type="matrix" values="0 0 0 0 0 0 0 0 0 0 0 0 0 0 0 0 0 0 127 0" result="hardAlpha"/>
<feOffset dy="4"/>
<feGaussianBlur stdDeviation="2"/>
<feComposite in2="hardAlpha" operator="out"/>
<feColorMatrix type="matrix" values="0 0 0 0 0 0 0 0 0 0 0 0 0 0 0 0 0 0 0.1 0"/>
<feBlend mode="normal" in2="BackgroundImageFix" result="effect1_dropShadow_309_184"/>
<feBlend mode="normal" in="SourceGraphic" in2="effect1_dropShadow_309_184" result="shape"/>
</filter>
</defs>
</svg>
