<svg width="56" height="56" viewBox="0 0 56 56" fill="none" xmlns="http://www.w3.org/2000/svg">
<g filter="url(#filter0_d_309_177)">
<circle cx="28" cy="24" r="24" fill="white"/>
</g>
<path d="M17.2545 34.2784C17.2257 34.2784 17.2001 34.2784 17.1681 34.2688C15.7857 34.0736 14.4705 33.6384 13.2417 32.9824C12.9505 32.8224 12.8353 32.4576 12.9953 32.1664C13.1553 31.8752 13.5105 31.76 13.8113 31.92C14.9121 32.512 16.1025 32.896 17.3441 33.0752C17.6737 33.12 17.8977 33.4304 17.8497 33.76C17.8113 34.064 17.5553 34.2784 17.2545 34.2784Z" fill="#0070AA"/>
<path d="M38.7425 34.2784C38.4513 34.2784 38.1889 34.064 38.1505 33.7632C38.1057 33.4336 38.3297 33.1232 38.6561 33.0784C39.8977 32.8992 41.0817 32.512 42.1889 31.9232C42.4801 31.7632 42.8449 31.8784 43.0049 32.1696C43.1649 32.4608 43.0497 32.8256 42.7585 32.9856C41.5265 33.6416 40.2113 34.0768 38.8321 34.272C38.7969 34.2688 38.7681 34.2784 38.7425 34.2784Z" fill="#0070AA"/>
<path d="M32.4353 28.864C32.3201 28.864 32.2113 28.8352 32.1057 28.768C31.8241 28.5888 31.7505 28.2144 31.9265 27.9328C32.7809 26.6272 34.2177 25.8368 35.7889 25.8368C36.1185 25.8368 36.3905 26.112 36.3905 26.4384C36.3905 26.7648 36.1217 27.04 35.7921 27.04C34.6369 27.04 33.5745 27.616 32.9441 28.5824C32.8193 28.7616 32.6337 28.864 32.4353 28.864Z" fill="#0070AA"/>
<path d="M37.1264 27.04C34.9952 27.04 33.1904 25.2352 33.1904 23.104C33.1904 20.9728 34.9952 19.168 37.1264 19.168C39.2576 19.168 41.0624 20.9728 41.0624 23.104C41.0688 25.2384 39.2672 27.04 37.1264 27.04ZM37.1264 20.3712C35.6416 20.3712 34.3904 21.6224 34.3904 23.1072C34.3904 24.592 35.6416 25.8432 37.1264 25.8432C38.6112 25.8432 39.8624 24.592 39.8624 23.1072C39.8592 21.616 38.608 20.3712 37.1264 20.3712Z" fill="#0070AA"/>
<path d="M42.4737 31.056C42.1441 31.056 41.8721 30.7808 41.8721 30.4544C41.8721 28.5728 40.3521 27.0528 38.4705 27.0528C38.1409 27.0528 37.8689 26.7776 37.8689 26.4512C37.8689 26.1248 38.1441 25.8496 38.4705 25.8496C41.0081 25.8496 43.0785 27.9168 43.0785 30.4576C43.0753 30.7808 42.8001 31.056 42.4737 31.056Z" fill="#0070AA"/>
<path d="M38.4577 27.04H35.7857C35.4561 27.04 35.1841 26.7648 35.1841 26.4384C35.1841 26.1088 35.4593 25.8368 35.7857 25.8368H38.4577C38.7873 25.8368 39.0593 26.112 39.0593 26.4384C39.0689 26.768 38.7969 27.04 38.4577 27.04Z" fill="#0070AA"/>
<path d="M42.4737 33.056C42.1441 33.056 41.8721 32.7808 41.8721 32.4544V30.4544C41.8721 30.1248 42.1473 29.8528 42.4737 29.8528C42.8001 29.8528 43.0753 30.128 43.0753 30.4544V32.4544C43.0753 32.784 42.8001 33.056 42.4737 33.056Z" fill="#0070AA"/>
<path d="M20.8736 33.4976C20.544 33.4976 20.272 33.2224 20.272 32.896C20.272 29.616 22.944 26.9472 26.2208 26.9472C26.5504 26.9472 26.8224 27.2224 26.8224 27.5488C26.8224 27.8752 26.5472 28.1504 26.2208 28.1504C23.6096 28.1504 21.4848 30.2752 21.4848 32.8864C21.472 33.2224 21.2128 33.4976 20.8736 33.4976Z" fill="#0070AA"/>
<path d="M29.7826 28.16H26.221C25.8914 28.16 25.6194 27.8848 25.6194 27.5584C25.6194 27.232 25.8946 26.9568 26.221 26.9568H29.7826C30.1122 26.9568 30.3842 27.232 30.3842 27.5584C30.3842 27.8848 30.1122 28.16 29.7826 28.16Z" fill="#0070AA"/>
<path d="M23.5585 28.864C23.3633 28.864 23.1649 28.768 23.0529 28.5888C22.4225 27.6224 21.3601 27.0464 20.2049 27.0464C19.8753 27.0464 19.6033 26.7712 19.6033 26.4448C19.6033 26.1152 19.8785 25.8432 20.2049 25.8432C21.7665 25.8432 23.2129 26.624 24.0673 27.9392C24.2465 28.2208 24.1729 28.5888 23.8881 28.7744C23.7985 28.8256 23.6737 28.864 23.5585 28.864Z" fill="#0070AA"/>
<path d="M20.8736 36.1696C20.544 36.1696 20.272 35.8944 20.272 35.568V32.896C20.272 32.5664 20.5472 32.2944 20.8736 32.2944C21.2032 32.2944 21.4752 32.5696 21.4752 32.896V35.568C21.472 35.904 21.2128 36.1696 20.8736 36.1696Z" fill="#0070AA"/>
<path d="M27.9969 28.16C25.2513 28.16 22.9409 25.8496 22.9409 23.104C22.9409 20.3584 25.2513 18.0448 27.9969 18.0448C30.7425 18.0448 33.0529 20.3552 33.0529 23.1008C33.0529 25.8464 30.7425 28.16 27.9969 28.16ZM27.9969 19.2512C25.9105 19.2512 24.1441 21.0176 24.1441 23.104C24.1441 25.1904 25.9105 26.9568 27.9969 26.9568C30.0833 26.9568 31.8497 25.1904 31.8497 23.104C31.8497 21.0176 30.0833 19.2512 27.9969 19.2512Z" fill="#0070AA"/>
<path d="M35.1201 33.4976C34.7905 33.4976 34.5185 33.2224 34.5185 32.896C34.5185 30.2848 32.3937 28.16 29.7825 28.16C29.4529 28.16 29.1809 27.8848 29.1809 27.5584C29.1809 27.2288 29.4561 26.9568 29.7825 26.9568C33.0625 26.9568 35.7313 29.6288 35.7313 32.9056C35.7249 33.2224 35.4593 33.4976 35.1201 33.4976Z" fill="#0070AA"/>
<path d="M35.1202 36.1696C34.7906 36.1696 34.5186 35.8944 34.5186 35.568V32.896C34.5186 32.5664 34.7938 32.2944 35.1202 32.2944C35.4466 32.2944 35.7218 32.5696 35.7218 32.896V35.568C35.725 35.904 35.4594 36.1696 35.1202 36.1696Z" fill="#0070AA"/>
<path d="M27.9968 37.9552C25.4496 37.9552 22.9088 37.3344 20.592 36.1056C20.3008 35.9456 20.1856 35.5808 20.3456 35.2896C20.5056 34.9984 20.8608 34.8832 21.1616 35.0432C25.4496 37.3248 30.56 37.3248 34.8384 35.0432C35.1296 34.8832 35.4944 34.9984 35.6544 35.2896C35.8144 35.5808 35.6992 35.9456 35.408 36.1056C33.0944 37.3344 30.544 37.9552 27.9968 37.9552Z" fill="#0070AA"/>
<path d="M18.8706 27.04C16.7394 27.04 14.9346 25.2352 14.9346 23.104C14.9346 20.9728 16.7394 19.168 18.8706 19.168C21.0018 19.168 22.8066 20.9728 22.8066 23.104C22.8066 25.2352 21.0082 27.04 18.8706 27.04ZM18.8706 20.3712C17.3858 20.3712 16.1346 21.6224 16.1346 23.1072C16.1346 24.592 17.3858 25.8432 18.8706 25.8432C20.3554 25.8432 21.6066 24.592 21.6066 23.1072C21.6066 21.616 20.3586 20.3712 18.8706 20.3712Z" fill="#0070AA"/>
<path d="M13.5328 31.056C13.2032 31.056 12.9312 30.7808 12.9312 30.4544C12.9312 27.9168 14.9984 25.8464 17.5392 25.8464C17.8688 25.8464 18.1408 26.1216 18.1408 26.448C18.1408 26.7744 17.8656 27.0496 17.5392 27.0496C15.6576 27.0496 14.1376 28.5696 14.1376 30.4512C14.1344 30.7808 13.8624 31.056 13.5328 31.056Z" fill="#0070AA"/>
<path d="M20.2082 27.04H17.5362C17.2066 27.04 16.9346 26.7648 16.9346 26.4384C16.9346 26.1088 17.2098 25.8368 17.5362 25.8368H20.2082C20.5378 25.8368 20.8098 26.112 20.8098 26.4384C20.8066 26.768 20.5474 27.04 20.2082 27.04Z" fill="#0070AA"/>
<path d="M13.5328 33.056C13.2032 33.056 12.9312 32.7808 12.9312 32.4544V30.4544C12.9312 30.1248 13.2064 29.8528 13.5328 29.8528C13.8592 29.8528 14.1344 30.128 14.1344 30.4544V32.4544C14.1344 32.784 13.8624 33.056 13.5328 33.056Z" fill="#0070AA"/>
<defs>
<filter id="filter0_d_309_177" x="0" y="0" width="56" height="56" filterUnits="userSpaceOnUse" color-interpolation-filters="sRGB">
<feFlood flood-opacity="0" result="BackgroundImageFix"/>
<feColorMatrix in="SourceAlpha" type="matrix" values="0 0 0 0 0 0 0 0 0 0 0 0 0 0 0 0 0 0 127 0" result="hardAlpha"/>
<feOffset dy="4"/>
<feGaussianBlur stdDeviation="2"/>
<feComposite in2="hardAlpha" operator="out"/>
<feColorMatrix type="matrix" values="0 0 0 0 0 0 0 0 0 0 0 0 0 0 0 0 0 0 0.1 0"/>
<feBlend mode="normal" in2="BackgroundImageFix" result="effect1_dropShadow_309_177"/>
<feBlend mode="normal" in="SourceGraphic" in2="effect1_dropShadow_309_177" result="shape"/>
</filter>
</defs>
</svg>
