<?xml version="1.0" encoding="utf-8"?>
<!-- Generator: Adobe Illustrator 27.1.1, SVG Export Plug-In . SVG Version: 6.00 Build 0)  -->
<svg version="1.1" id="Layer_1" xmlns="http://www.w3.org/2000/svg" xmlns:xlink="http://www.w3.org/1999/xlink" x="0px" y="0px"
	 viewBox="0 0 150 150" style="enable-background:new 0 0 150 150;" xml:space="preserve">
<style type="text/css">
	.st0{fill:#0070AA;}
</style>
<g>
	<path class="st0" d="M91.26,115.52h9v27.32h-9V115.52z"/>
	<path class="st0" d="M91.26,7.13L91.26,7.13H59.73v135.71h22.53v-36.32h27.02v36.35h22.82v-16.94c0-5.36,0-9.06,0-14.85
		c0-8.47,0-12.5,0-19.52V7.16h-31.82l0,0h-9.03V7.13z M109.28,25.42h9v9h-9V25.42z M109.28,43.45h9v9h-9V43.45z M109.28,61.47h9v9
		h-9V61.47z M109.28,79.47h9v9h-9V79.47z M82.26,88.5h-9v-9h9V88.5z M82.26,70.47h-9v-9h9V70.47z M82.26,52.44h-9v-9h9V52.44z
		 M82.26,34.45h-9v-9h9V34.45z M100.25,88.5h-9v-9h9V88.5z M100.25,70.47h-9v-9h9V70.47z M100.25,52.44h-9v-9h9V52.44z
		 M100.25,34.45h-9v-9h9V34.45z"/>
	<path class="st0" d="M17.89,91.54c0,9.13,0,9.13,0,19.48c0,5.76,0,9.76,0,14.72v17.13h36.35c0-34.6,0-63.61,0-115.17L17.89,54.72
		V91.54z M31.69,61.47h9v9h-9V61.47z M31.69,79.47h9v9h-9V79.47z"/>
</g>
</svg>
