<?xml version="1.0" encoding="utf-8"?>
<!-- Generator: Adobe Illustrator 27.1.1, SVG Export Plug-In . SVG Version: 6.00 Build 0)  -->
<svg version="1.1" id="Layer_1" xmlns="http://www.w3.org/2000/svg" xmlns:xlink="http://www.w3.org/1999/xlink" x="0px" y="0px"
	 viewBox="0 0 150 150" style="enable-background:new 0 0 150 150;" xml:space="preserve">
<style type="text/css">
	.st0{fill:#0070AA;}
</style>
<g>
	<path class="st0" d="M34.13,26.97c3.3-0.97,6.6-1.32,9.87-1.32c5.28,0,10.53,1.32,15.15,3.62c-3.3-7.26-11.54-10.53-18.77-7.58
		C37.78,23.01,35.8,24.68,34.13,26.97L34.13,26.97z"/>
	<path class="st0" d="M90.81,29.27c4.62-2.29,9.87-3.62,15.15-3.62c3.3,0,6.6,0.66,9.87,1.32c-2.95-3.96-7.26-6.26-12.2-6.26
		C98.04,20.72,92.76,24.02,90.81,29.27L90.81,29.27z"/>
	<path class="st0" d="M90.81,60.23c13.17-8.55,30.3-8.9,43.47-0.66l-10.22-20.43c-0.31-0.66-0.66-0.97-1.32-1.32
		c0,0-5.28-5.28-17.13-5.28c-7.58,0-12.2,1.98-16.13,5.6c-0.66,0.31-0.97,1.32-1.32,1.98l-1.63,10.22h-3.62
		c-0.97-0.66-1.63-1.32-2.64-1.63c-3.3-1.32-6.92-1.32-10.22,0c-0.97,0.31-1.98,0.97-2.64,1.63h-3.62L61.83,39.8
		c0-0.31-0.31-0.97-0.31-0.97c-6.26-5.28-12.2-6.26-17.13-6.26c-5.6,0-8.55-0.31-17.13,5.28c-0.66,0.31-0.97,0.66-1.32,1.32
		L16.06,59.6c13.17-7.89,29.96-7.89,43.16,0.66c2.29,1.63,15.81,18.11,15.81,18.11S88.17,61.9,90.81,60.23z"/>
	<path class="st0" d="M37.12,60.23c-19.11,0-34.58,15.47-34.58,34.58s15.47,34.58,34.58,34.58S71.7,113.92,71.7,94.81
		S56.2,60.23,37.12,60.23z M37.12,117.54c-12.51,0-23.04-10.22-23.04-23.04c0-12.51,10.22-23.04,23.04-23.04S60.16,81.67,60.16,94.5
		S49.63,117.54,37.12,117.54z"/>
	<path class="st0" d="M112.88,60.23c-19.11,0-34.58,15.47-34.58,34.58s15.47,34.58,34.58,34.58s34.58-15.47,34.58-34.58
		S131.96,60.23,112.88,60.23z M112.88,117.54c-12.51,0-23.04-10.22-23.04-23.04c0-12.51,10.22-23.04,23.04-23.04
		c12.86,0,23.04,10.22,23.04,23.04S125.39,117.54,112.88,117.54z"/>
</g>
</svg>
