<?xml version="1.0" encoding="utf-8"?>
<!-- Generator: Adobe Illustrator 27.1.1, SVG Export Plug-In . SVG Version: 6.00 Build 0)  -->
<svg version="1.1" id="Layer_1" xmlns="http://www.w3.org/2000/svg" xmlns:xlink="http://www.w3.org/1999/xlink" x="0px" y="0px"
	 viewBox="0 0 150 150" style="enable-background:new 0 0 150 150;" xml:space="preserve">
<style type="text/css">
	.st0{fill:#0070AA;}
</style>
<g>
	<path class="st0" d="M79.35,52.99c-1.41-0.27-2.88-0.45-4.39-0.45c-12.41,0-22.49,10.08-22.49,22.49s10.08,22.49,22.49,22.49
		s22.49-10.08,22.49-22.49c0-1.51-0.14-2.98-0.45-4.39L83.78,83.88c-2.37,2.37-5.49,3.67-8.85,3.67c-3.33,0-6.48-1.3-8.85-3.67
		c-2.37-2.37-3.67-5.49-3.67-8.85c0-3.33,1.3-6.48,3.67-8.85L79.35,52.99z"/>
	<path class="st0" d="M139.7,45.65l-8.95,8.95c-0.89,0.89-1.92,1.65-2.98,2.23c1.99,5.73,3.05,11.83,3.05,18.21
		c0,30.79-25.03,55.82-55.82,55.82s-55.82-25.03-55.82-55.82c0-30.79,25.03-55.82,55.82-55.82c6.38,0,12.52,1.06,18.21,3.05
		c0.58-1.1,1.3-2.09,2.23-3.02l8.95-8.95C95.44,6.21,85.46,3.92,75,3.92C35.81,3.92,3.92,35.81,3.92,75S35.81,146.08,75,146.08
		s71.08-31.89,71.08-71.08C146.05,64.58,143.79,54.63,139.7,45.65z"/>
	<path class="st0" d="M92.66,39.68L91.9,30.7c-5.25-2.02-10.97-3.12-16.94-3.12c-26.2,0-47.49,21.29-47.49,47.49
		c0,26.2,21.29,47.49,47.49,47.49s47.49-21.29,47.49-47.49c0-5.97-1.1-11.66-3.12-16.94l-8.98-0.75l-6.62,6.62
		c1.34,3.43,2.06,7.17,2.06,11.08c0,17.01-13.82,30.83-30.83,30.83S44.14,92.08,44.14,75.07c0-17.01,13.82-30.83,30.83-30.83
		c3.91,0,7.65,0.72,11.08,2.06L92.66,39.68z"/>
	<path class="st0" d="M100.07,28.47l1.2,14.37L71.98,72.12c-1.61,1.61-1.61,4.25,0,5.9c0.82,0.82,1.89,1.23,2.95,1.23
		c1.06,0,2.13-0.41,2.95-1.23l29.28-29.28l14.37,1.2c0.1,0,0.24,0,0.34,0c1.1,0,2.16-0.45,2.95-1.23l17.66-17.66
		c1.13-1.13,1.51-2.85,0.96-4.39c-0.55-1.51-1.95-2.57-3.57-2.71l-12.79-1.06l-1.06-12.79c-0.14-1.61-1.2-3.02-2.71-3.57
		c-1.51-0.55-3.22-0.17-4.39,0.96l-17.66,17.66C100.41,26.03,99.96,27.23,100.07,28.47z"/>
</g>
</svg>
