<svg width="56" height="56" viewBox="0 0 56 56" fill="none" xmlns="http://www.w3.org/2000/svg">
<g filter="url(#filter0_d_303_48)">
<circle cx="28" cy="24" r="24" fill="white"/>
</g>
<path fill-rule="evenodd" clip-rule="evenodd" d="M28.0673 11.6416C32.0353 11.6416 35.3697 14.8064 35.3697 18.7712C35.3697 22.7136 32.0449 26.048 28.0673 26.048C23.9393 26.048 20.6049 22.7104 20.6049 18.7712C20.6177 14.8064 23.9521 11.6416 28.0673 11.6416ZM37.4465 18.5984C37.4465 23.6768 28.0801 38.5792 28.0801 38.5792C28.0801 38.5792 18.5537 23.68 18.5537 18.5984C18.5537 13.5456 22.8417 9.4176 28.0801 9.4176C33.1585 9.4176 37.4465 13.5328 37.4465 18.5984Z" fill="#0070AA"/>
<defs>
<filter id="filter0_d_303_48" x="0" y="0" width="56" height="56" filterUnits="userSpaceOnUse" color-interpolation-filters="sRGB">
<feFlood flood-opacity="0" result="BackgroundImageFix"/>
<feColorMatrix in="SourceAlpha" type="matrix" values="0 0 0 0 0 0 0 0 0 0 0 0 0 0 0 0 0 0 127 0" result="hardAlpha"/>
<feOffset dy="4"/>
<feGaussianBlur stdDeviation="2"/>
<feComposite in2="hardAlpha" operator="out"/>
<feColorMatrix type="matrix" values="0 0 0 0 0 0 0 0 0 0 0 0 0 0 0 0 0 0 0.1 0"/>
<feBlend mode="normal" in2="BackgroundImageFix" result="effect1_dropShadow_303_48"/>
<feBlend mode="normal" in="SourceGraphic" in2="effect1_dropShadow_303_48" result="shape"/>
</filter>
</defs>
</svg>
