<svg width="56" height="56" viewBox="0 0 56 56" fill="none" xmlns="http://www.w3.org/2000/svg">
<g filter="url(#filter0_d_303_30)">
<circle cx="28" cy="24" r="24" fill="white"/>
</g>
<path d="M32.9441 34.096H34.6785V38.8608H32.9441V34.096Z" fill="#0070AA"/>
<path d="M29.4658 34.096H31.2002V38.8608H29.4658V34.096Z" fill="#0070AA"/>
<path d="M37.9297 9.1424H26.2049C25.7217 9.1424 25.3313 9.536 25.3313 10.016V38.8576H27.7057V33.2288C27.7057 32.7456 28.0993 32.3552 28.5793 32.3552H32.0609H35.5425C36.0257 32.3552 36.4161 32.7488 36.4161 33.2288V38.8512H38.7905V10.0128C38.8001 9.536 38.4065 9.1424 37.9297 9.1424ZM29.4657 29.7408C29.4657 30.224 29.0721 30.6144 28.5921 30.6144C28.1121 30.6144 27.7185 30.2208 27.7185 29.7408V28.0064C27.7185 27.5232 28.1121 27.1328 28.5921 27.1328C29.0721 27.1328 29.4657 27.5264 29.4657 28.0064V29.7408ZM29.4657 24.5184C29.4657 25.0016 29.0721 25.392 28.5921 25.392C28.1121 25.392 27.7185 24.9984 27.7185 24.5184V22.784C27.7185 22.3008 28.1121 21.9104 28.5921 21.9104C29.0721 21.9104 29.4657 22.304 29.4657 22.784V24.5184ZM32.9441 29.7408C32.9441 30.224 32.5505 30.6144 32.0705 30.6144C31.5873 30.6144 31.1969 30.2208 31.1969 29.7408V28.0064C31.1969 27.5232 31.5905 27.1328 32.0705 27.1328C32.5537 27.1328 32.9441 27.5264 32.9441 28.0064V29.7408ZM32.9441 24.5184C32.9441 25.0016 32.5505 25.392 32.0705 25.392C31.5873 25.392 31.1969 24.9984 31.1969 24.5184V22.784C31.1969 22.3008 31.5905 21.9104 32.0705 21.9104C32.5537 21.9104 32.9441 22.304 32.9441 22.784V24.5184ZM36.4257 29.7408C36.4257 30.224 36.0321 30.6144 35.5521 30.6144C35.0689 30.6144 34.6785 30.2208 34.6785 29.7408V28.0064C34.6785 27.5232 35.0721 27.1328 35.5521 27.1328C36.0353 27.1328 36.4257 27.5264 36.4257 28.0064V29.7408ZM36.4257 24.5184C36.4257 25.0016 36.0321 25.392 35.5521 25.392C35.0689 25.392 34.6785 24.9984 34.6785 24.5184V22.784C34.6785 22.3008 35.0721 21.9104 35.5521 21.9104C36.0353 21.9104 36.4257 22.304 36.4257 22.784V24.5184ZM29.4657 19.2928C29.4657 19.776 29.0721 20.1664 28.5921 20.1664C28.1121 20.1664 27.7185 19.7728 27.7185 19.2928V17.5584C27.7185 17.0752 28.1121 16.6848 28.5921 16.6848C29.0721 16.6848 29.4657 17.0784 29.4657 17.5584V19.2928ZM32.9441 19.2928C32.9441 19.776 32.5505 20.1664 32.0705 20.1664C31.5873 20.1664 31.1969 19.7728 31.1969 19.2928V17.5584C31.1969 17.0752 31.5905 16.6848 32.0705 16.6848C32.5537 16.6848 32.9441 17.0784 32.9441 17.5584V19.2928ZM36.4257 19.2928C36.4257 19.776 36.0321 20.1664 35.5521 20.1664C35.0689 20.1664 34.6785 19.7728 34.6785 19.2928V17.5584C34.6785 17.0752 35.0721 16.6848 35.5521 16.6848C36.0353 16.6848 36.4257 17.0784 36.4257 17.5584V19.2928ZM29.4657 14.0736C29.4657 14.5568 29.0721 14.9472 28.5921 14.9472C28.1121 14.9472 27.7185 14.5536 27.7185 14.0736V12.3392C27.7185 11.856 28.1121 11.4656 28.5921 11.4656C29.0721 11.4656 29.4657 11.8592 29.4657 12.3392V14.0736ZM32.9441 14.0736C32.9441 14.5568 32.5505 14.9472 32.0705 14.9472C31.5873 14.9472 31.1969 14.5536 31.1969 14.0736V12.3392C31.1969 11.856 31.5905 11.4656 32.0705 11.4656C32.5537 11.4656 32.9441 11.8592 32.9441 12.3392V14.0736ZM36.4257 14.0736C36.4257 14.5568 36.0321 14.9472 35.5521 14.9472C35.0689 14.9472 34.6785 14.5536 34.6785 14.0736V12.3392C34.6785 11.856 35.0721 11.4656 35.5521 11.4656C36.0353 11.4656 36.4257 11.8592 36.4257 12.3392V14.0736Z" fill="#0070AA"/>
<path d="M18.0833 20.7424C17.6001 20.7424 17.2097 21.136 17.2097 21.616V37.984C17.2097 38.4672 17.6033 38.8576 18.0833 38.8576H23.5937V20.752H18.0833V20.7424ZM21.2801 32.064C21.2801 32.5472 20.8865 32.9376 20.4065 32.9376C19.9233 32.9376 19.5329 32.544 19.5329 32.064V30.3296C19.5329 29.8464 19.9265 29.456 20.4065 29.456C20.8897 29.456 21.2801 29.8496 21.2801 30.3296V32.064ZM21.2801 26.8352C21.2801 27.3184 20.8865 27.7088 20.4065 27.7088C19.9233 27.7088 19.5329 27.3152 19.5329 26.8352V25.1008C19.5329 24.6176 19.9265 24.2272 20.4065 24.2272C20.8897 24.2272 21.2801 24.6208 21.2801 25.1008V26.8352Z" fill="#0070AA"/>
<defs>
<filter id="filter0_d_303_30" x="0" y="0" width="56" height="56" filterUnits="userSpaceOnUse" color-interpolation-filters="sRGB">
<feFlood flood-opacity="0" result="BackgroundImageFix"/>
<feColorMatrix in="SourceAlpha" type="matrix" values="0 0 0 0 0 0 0 0 0 0 0 0 0 0 0 0 0 0 127 0" result="hardAlpha"/>
<feOffset dy="4"/>
<feGaussianBlur stdDeviation="2"/>
<feComposite in2="hardAlpha" operator="out"/>
<feColorMatrix type="matrix" values="0 0 0 0 0 0 0 0 0 0 0 0 0 0 0 0 0 0 0.1 0"/>
<feBlend mode="normal" in2="BackgroundImageFix" result="effect1_dropShadow_303_30"/>
<feBlend mode="normal" in="SourceGraphic" in2="effect1_dropShadow_303_30" result="shape"/>
</filter>
</defs>
</svg>
