<svg width="56" height="56" viewBox="0 0 56 56" fill="none" xmlns="http://www.w3.org/2000/svg">
<g filter="url(#filter0_d_303_21)">
<circle cx="28" cy="24" r="24" fill="white"/>
</g>
<path fill-rule="evenodd" clip-rule="evenodd" d="M28.2113 36.272C34.9729 35.8464 40.3425 30.3712 40.3425 23.728H38.7361C38.7361 24.2592 38.7361 24.7936 38.6305 25.216C38.3009 24.3648 37.8753 23.3952 36.9089 22.656C36.1537 22.2304 35.6225 20.0736 36.0577 19.4336C36.2721 19.008 36.9089 18.6784 37.4497 18.4736C38.0897 19.6544 38.5249 20.9408 38.6305 22.32V19.4304L39.3761 20.0704C39.4817 19.7632 39.4817 19.4304 39.4817 19.1104C38.9409 17.6032 38.0897 16.2176 36.9089 15.0368C35.6225 14.9312 34.2209 15.4624 33.1457 15.8976C32.7201 16.0032 32.1857 16.3232 31.7665 16.544C32.7265 17.2992 33.7025 18.1504 34.1281 18.3648C34.6593 18.5856 35.3089 20.9472 35.2033 21.9072C35.0977 22.7584 33.3825 23.9488 33.8113 24.9152C34.2369 25.8752 33.4817 26.9568 33.4817 26.9568C33.4817 26.9568 32.8417 30.0704 32.4065 30.4992C31.9713 30.912 29.5041 31.9872 30.0385 32.6368C30.5921 33.2768 32.2913 32.5312 33.9073 32.1056C34.3329 31.9904 34.7681 31.8848 35.2033 31.776C33.2769 33.488 30.5889 34.6688 27.7921 34.7744L28.2273 35.2V36.2752H28.2145V36.272H28.2113ZM19.2929 33.5808C19.9329 34.1344 20.6849 34.5568 21.4305 34.8768C22.1857 35.0816 23.0465 35.0816 23.6833 34.9824C23.9041 34.8768 24.0129 34.8768 24.1089 34.8768L23.4689 34.2304H23.7889C22.4097 33.8048 21.0017 32.944 19.8209 31.9776C20.7873 32.5184 21.8625 32.7328 22.8289 32.5184C24.9665 32.2976 21.2225 30.5824 23.0433 29.7312C24.8641 28.8608 25.0849 26.5088 24.4353 26.7232C23.9041 26.944 22.4993 26.3936 21.3217 25.6576C20.8961 26.2976 20.4705 27.0368 20.0353 27.7952C19.2801 29.4016 18.4193 31.664 19.1745 33.376C19.1873 33.4752 19.2929 33.5808 19.2929 33.5808ZM27.3441 10.9632C20.1473 10.9632 14.3425 16.6368 14.3425 23.6128C14.3425 25.12 14.5633 26.6208 15.0977 27.9072C15.3121 27.056 15.7441 26.08 16.0641 25.2192V25.1136L16.1697 25.008C16.8097 23.5008 17.6705 22.1152 18.7425 20.7136C18.7425 20.384 18.7425 20.0672 18.7425 19.648C18.7425 19.0016 19.8177 18.7776 20.6785 18.352C20.9985 18.0224 21.2193 17.8208 21.5393 17.4912C21.6449 16.736 20.8993 15.4496 20.3585 14.8256C22.2945 13.3184 24.7681 12.464 27.3441 12.464C27.7697 12.464 28.0993 12.464 28.5249 12.5696C28.6305 12.464 28.7393 12.464 28.8449 12.3488C29.6001 12.0416 30.3521 11.7088 31.0977 11.4976C29.9265 11.0688 28.6401 10.9632 27.3441 10.9632ZM41.5233 16.2112C41.0977 14.1696 39.4817 12.768 37.4401 12.2432C34.7521 11.5968 31.8497 12.464 29.3921 13.5296C27.4561 14.3808 25.6289 15.6864 23.9169 17.072C21.2289 19.4336 18.8673 22.32 17.3601 25.5424C16.2849 28.0096 15.5329 30.8992 16.3937 33.4848C16.7137 34.56 17.3601 35.4208 18.2145 36.0448C19.3921 36.8 20.7841 37.12 22.0801 37.0208C23.7921 37.0208 25.4081 36.4896 26.9153 35.84V35.7344L26.7009 35.5136C25.7345 35.8432 24.8737 36.0448 23.9137 36.2688C21.6641 36.5952 18.9761 36.16 18.0065 33.7984C14.6785 26.0608 33.2609 9.8816 39.3729 14.5984C39.5937 14.8192 39.8081 15.024 40.0193 15.2384C40.4449 15.8848 40.6593 16.5344 40.7745 17.1744C40.9889 18.576 40.7745 19.9616 40.4449 21.248C40.3393 21.696 40.2305 22.0032 40.0193 22.4288H40.4449C41.2993 20.5056 41.9489 18.3488 41.5233 16.2112Z" fill="#0070AA"/>
<defs>
<filter id="filter0_d_303_21" x="0" y="0" width="56" height="56" filterUnits="userSpaceOnUse" color-interpolation-filters="sRGB">
<feFlood flood-opacity="0" result="BackgroundImageFix"/>
<feColorMatrix in="SourceAlpha" type="matrix" values="0 0 0 0 0 0 0 0 0 0 0 0 0 0 0 0 0 0 127 0" result="hardAlpha"/>
<feOffset dy="4"/>
<feGaussianBlur stdDeviation="2"/>
<feComposite in2="hardAlpha" operator="out"/>
<feColorMatrix type="matrix" values="0 0 0 0 0 0 0 0 0 0 0 0 0 0 0 0 0 0 0.1 0"/>
<feBlend mode="normal" in2="BackgroundImageFix" result="effect1_dropShadow_303_21"/>
<feBlend mode="normal" in="SourceGraphic" in2="effect1_dropShadow_303_21" result="shape"/>
</filter>
</defs>
</svg>
