<svg width="56" height="56" viewBox="0 0 56 56" fill="none" xmlns="http://www.w3.org/2000/svg">
<g filter="url(#filter0_d_303_22)">
<circle cx="28" cy="24" r="24" fill="white"/>
</g>
<path d="M43.0817 27.3696C43.0817 27.5136 43.0209 27.6352 42.9153 27.7312L35.0017 34.4352C34.9153 34.5088 34.8097 34.5408 34.6977 34.5408C34.6241 34.5408 34.5665 34.528 34.5057 34.4928C34.3393 34.4192 34.2273 34.2528 34.2273 34.0576V31.1808H21.2929C21.0273 31.1808 20.8225 30.9632 20.8225 30.7104C20.8225 30.4448 21.0401 30.24 21.2929 30.24H34.7137C34.9793 30.24 35.1841 30.4576 35.1841 30.7104V33.0464L41.8881 27.3536L35.1841 21.664V24C35.1841 24.2656 34.9665 24.4704 34.7137 24.4704H21.7761V27.3472C21.7761 27.5264 21.6705 27.696 21.4977 27.7824C21.3313 27.856 21.1361 27.8304 20.9953 27.7088L13.0849 21.0016C12.9793 20.9152 12.9185 20.784 12.9185 20.64C12.9185 20.496 12.9793 20.3744 13.0849 20.2784L20.9921 13.5744C21.1361 13.456 21.3281 13.4304 21.4945 13.5008C21.6609 13.5744 21.7729 13.7408 21.7729 13.936V16.8128H34.7137C34.9793 16.8128 35.1841 17.0304 35.1841 17.2832C35.1841 17.5488 34.9665 17.7536 34.7137 17.7536H21.2929C21.0273 17.7536 20.8225 17.536 20.8225 17.2832V14.9472L14.1185 20.64L20.8225 26.3328V24C20.8225 23.7344 21.0401 23.5296 21.2929 23.5296H34.2337V20.6528C34.2337 20.4736 34.3393 20.304 34.5121 20.2176C34.6785 20.144 34.8737 20.1696 35.0145 20.2912L42.9217 26.9952C43.0209 27.0944 43.0817 27.2256 43.0817 27.3696Z" fill="#0070AA"/>
<defs>
<filter id="filter0_d_303_22" x="0" y="0" width="56" height="56" filterUnits="userSpaceOnUse" color-interpolation-filters="sRGB">
<feFlood flood-opacity="0" result="BackgroundImageFix"/>
<feColorMatrix in="SourceAlpha" type="matrix" values="0 0 0 0 0 0 0 0 0 0 0 0 0 0 0 0 0 0 127 0" result="hardAlpha"/>
<feOffset dy="4"/>
<feGaussianBlur stdDeviation="2"/>
<feComposite in2="hardAlpha" operator="out"/>
<feColorMatrix type="matrix" values="0 0 0 0 0 0 0 0 0 0 0 0 0 0 0 0 0 0 0.1 0"/>
<feBlend mode="normal" in2="BackgroundImageFix" result="effect1_dropShadow_303_22"/>
<feBlend mode="normal" in="SourceGraphic" in2="effect1_dropShadow_303_22" result="shape"/>
</filter>
</defs>
</svg>
