<svg width="72" height="72" viewBox="0 0 72 72" fill="none" xmlns="http://www.w3.org/2000/svg">
<rect x="0.5" y="0.5" width="71" height="71" rx="7.5" fill="#F4FCFF"/>
<rect x="0.5" y="0.5" width="71" height="71" rx="7.5" stroke="#0070AA"/>
<path d="M18.3361 33.568C31.3761 36.468 32.3361 49.408 32.3361 49.408C32.3361 49.408 33.2961 36.468 46.3361 33.568C33.2961 30.668 32.3361 17.728 32.3361 17.728C32.3361 17.728 31.3921 30.668 18.3361 33.568Z" fill="#0070AA"/>
<path d="M37.8241 45.744C42.0401 46.548 45.2481 50 45.7441 54.272C46.2401 50 49.4481 46.564 53.6641 45.744C49.4481 44.94 46.2401 41.488 45.7441 37.216C45.2481 41.488 42.0521 44.936 37.8241 45.744Z" fill="#0070AA"/>
</svg>
