<svg width="72" height="72" viewBox="0 0 72 72" fill="none" xmlns="http://www.w3.org/2000/svg">
<rect x="0.5" y="0.5" width="71" height="71" rx="7.5" fill="#F4FCFF"/>
<rect x="0.5" y="0.5" width="71" height="71" rx="7.5" stroke="#0070AA"/>
<path d="M46.9199 17.456H35.0079C32.0759 17.456 29.7119 19.832 29.7119 22.752V24.68C29.7119 25.048 30.0039 25.34 30.3719 25.34C30.7399 25.34 31.0319 25.048 31.0319 24.68V22.752C31.0319 20.56 32.8159 18.776 35.0079 18.776H46.9199C49.1119 18.776 50.8959 20.56 50.8959 22.752V47.92H31.0359V44.856C31.0359 44.488 30.7439 44.196 30.3759 44.196C30.0079 44.196 29.7159 44.488 29.7159 44.856V49.252C29.7159 52.184 32.0919 54.548 35.0119 54.548H46.9199C49.8519 54.548 52.2159 52.172 52.2159 49.252V22.752C52.2119 19.832 49.8519 17.468 46.9199 17.456ZM50.8919 49.264C50.8919 51.456 49.1079 53.24 46.9159 53.24H35.0079C32.8159 53.24 31.0319 51.456 31.0319 49.264H50.8919Z" fill="#0070AA"/>
<path d="M39.316 51.772H42.632C43 51.772 43.292 51.48 43.292 51.112C43.292 50.744 43 50.452 42.632 50.452H39.316C38.948 50.452 38.656 50.744 38.656 51.112C38.652 51.48 38.944 51.772 39.316 51.772Z" fill="#0070AA"/>
<path d="M20.4479 26.512H22.6519L25.0399 36.084H24.5239C23.3999 36.084 22.5039 36.996 22.5039 38.104C22.5039 39.228 23.4159 40.124 24.5239 40.124H36.7919C37.1599 40.124 37.4519 39.832 37.4519 39.464C37.4519 39.096 37.1599 38.804 36.7919 38.804H24.5279C24.1439 38.804 23.8279 38.488 23.8279 38.104C23.8279 37.72 24.1439 37.404 24.5279 37.404H35.8039C36.6759 37.404 37.4559 36.848 37.7199 36.016L39.5439 30.564C39.8999 29.508 39.3199 28.36 38.2639 28.004C38.0519 27.936 37.8399 27.9 37.6319 27.9H24.3679L23.8119 25.68C23.7319 25.388 23.4679 25.18 23.1639 25.18H20.4439C20.0759 25.18 19.7839 25.472 19.7839 25.84C19.7879 26.208 20.0759 26.512 20.4479 26.512ZM37.6359 29.232C38.0199 29.232 38.3359 29.548 38.3359 29.932C38.3359 30.012 38.3239 30.076 38.2959 30.156L36.4719 35.608C36.3799 35.9 36.1159 36.084 35.8119 36.084H26.4119L24.6959 29.232H37.6359Z" fill="#0070AA"/>
<path d="M24.564 40.324C23.364 40.324 22.384 41.3 22.384 42.504C22.384 43.708 23.36 44.684 24.564 44.684C25.768 44.684 26.744 43.708 26.744 42.504C26.744 41.3 25.768 40.324 24.564 40.324ZM24.564 43.348C24.088 43.348 23.704 42.964 23.704 42.504C23.704 42.028 24.088 41.644 24.548 41.644C25.024 41.644 25.408 42.028 25.408 42.488C25.424 42.964 25.04 43.348 24.564 43.348Z" fill="#0070AA"/>
<path d="M35.168 40.324C33.968 40.324 32.988 41.3 32.988 42.504C32.988 43.708 33.964 44.684 35.168 44.684C36.368 44.684 37.348 43.708 37.348 42.504C37.348 41.3 36.368 40.324 35.168 40.324ZM35.168 43.348C34.692 43.348 34.308 42.964 34.308 42.504C34.308 42.044 34.692 41.644 35.152 41.644C35.628 41.644 36.012 42.028 36.012 42.488C36.012 42.964 35.632 43.348 35.168 43.348Z" fill="#0070AA"/>
</svg>
