<svg width="72" height="72" viewBox="0 0 72 72" fill="none" xmlns="http://www.w3.org/2000/svg">
<rect x="0.5" y="0.5" width="71" height="71" rx="7.5" fill="#F4FCFF"/>
<rect x="0.5" y="0.5" width="71" height="71" rx="7.5" stroke="#0070AA"/>
<path d="M36.4921 33.372C36.4161 33.36 36.3401 33.348 36.2521 33.36C35.4681 33.272 34.8761 32.6 34.8761 31.82C34.8761 31.44 34.5721 31.136 34.1921 31.136C33.8121 31.136 33.5081 31.44 33.5081 31.82C33.5081 33.136 34.3921 34.284 35.6561 34.636V35.32C35.6561 35.7 35.9601 36.004 36.3401 36.004C36.7201 36.004 37.0241 35.7 37.0241 35.32V34.676C38.4881 34.372 39.4761 33.008 39.3241 31.516C39.1721 30.024 37.9201 28.9 36.4161 28.9C35.5561 28.9 34.8601 28.204 34.8601 27.344C34.8601 26.484 35.5561 25.788 36.4161 25.788C37.2761 25.788 37.9721 26.484 37.9721 27.344C37.9721 27.724 38.2761 28.028 38.6561 28.028C39.0361 28.028 39.3401 27.724 39.3401 27.344C39.3401 25.968 38.3681 24.78 37.0281 24.488V23.868C37.0281 23.488 36.7241 23.184 36.3441 23.184C35.9641 23.184 35.6601 23.488 35.6601 23.868V24.524C34.2561 24.904 33.3481 26.28 33.5361 27.72C33.7241 29.172 34.9641 30.248 36.4281 30.248C37.2761 30.248 37.9561 30.932 37.9841 31.764C38.0081 32.64 37.3401 33.332 36.4921 33.372Z" fill="#0070AA"/>
<path d="M26.5361 29.644C26.5361 35.116 30.9721 39.548 36.4401 39.548C41.9081 39.548 46.3441 35.112 46.3441 29.644C46.3441 24.176 41.9161 19.74 36.4441 19.74C30.9721 19.74 26.5481 24.172 26.5361 29.644ZM36.4441 21.104C41.1561 21.104 44.9841 24.92 44.9841 29.644C44.9841 34.356 41.1681 38.184 36.4441 38.184C31.7321 38.184 27.9041 34.368 27.9041 29.644C27.9161 24.932 31.7321 21.104 36.4441 21.104Z" fill="#0070AA"/>
<path d="M49.7121 41.22L44.3681 43.748C43.6361 42.372 42.2081 41.5 40.6521 41.46L35.7121 41.32C34.9281 41.296 34.1561 41.104 33.4641 40.74L32.9601 40.476C30.3841 39.136 27.3241 39.136 24.7481 40.488L24.7721 39.352C24.7841 38.972 24.4801 38.656 24.1041 38.644L18.6801 38.488C18.3001 38.476 17.9841 38.78 17.9841 39.156L17.6561 51.036C17.6441 51.416 17.9481 51.732 18.3241 51.744L23.7441 51.896H23.7561C24.1241 51.896 24.4241 51.604 24.4401 51.228L24.4521 50.66L25.8561 49.9C26.4121 49.596 27.0561 49.532 27.6641 49.696L36.0681 52.06C36.0801 52.06 36.0921 52.072 36.1201 52.072C36.7281 52.2 37.3441 52.26 37.9641 52.26C39.2801 52.26 40.5801 51.984 41.7681 51.428C41.7921 51.416 41.8321 51.404 41.8561 51.376L54.0361 43.504C54.3401 43.3 54.4401 42.912 54.2641 42.596C53.3601 41.004 51.3521 40.396 49.7121 41.22ZM19.0561 50.404L19.3481 39.892L23.3921 40.004L23.1001 50.516L19.0561 50.404ZM41.1561 50.228C39.6761 50.896 38.0241 51.088 36.4161 50.76L28.0401 48.408C27.0921 48.144 26.0961 48.256 25.2241 48.712L24.5041 49.092L24.6921 42.104C26.9681 40.588 29.8841 40.436 32.3121 41.7L32.8161 41.964C33.6881 42.42 34.6601 42.672 35.6481 42.696L40.5881 42.836C41.9761 42.872 43.1521 43.86 43.4321 45.224L36.0801 45.02C35.7001 45.008 35.3841 45.312 35.3721 45.688C35.3601 46.068 35.6641 46.384 36.0401 46.396L44.1521 46.624H44.1761C44.5441 46.624 44.8441 46.332 44.8601 45.956C44.8721 45.664 44.8481 45.364 44.7961 45.072L50.2801 42.48C50.2801 42.48 50.2921 42.48 50.2921 42.468C51.0761 42.076 52.0121 42.204 52.6561 42.796L41.1561 50.228Z" fill="#0070AA"/>
</svg>
