<svg width="72" height="72" viewBox="0 0 72 72" fill="none" xmlns="http://www.w3.org/2000/svg">
<rect x="0.5" y="0.5" width="71" height="71" rx="7.5" fill="#F4FCFF"/>
<rect x="0.5" y="0.5" width="71" height="71" rx="7.5" stroke="#0070AA"/>
<path d="M52.0361 33.848C51.1521 34.404 50.1281 34.688 49.0961 34.688C47.5201 34.688 46.0801 34.044 45.0441 32.948C43.8001 34.088 42.1921 34.736 40.5241 34.736C40.2681 34.736 40.0121 34.72 39.7601 34.692C38.0481 34.48 36.8041 33.628 35.9921 32.832C35.1801 33.628 33.9361 34.484 32.2241 34.692C30.3041 34.916 28.3801 34.256 26.9401 32.952C25.9041 34.048 24.4481 34.692 22.8881 34.692C21.8681 34.692 20.8601 34.408 19.9921 33.88C18.2201 32.8 17.6641 30.456 18.7161 28.612L22.6001 19.96C23.2321 18.548 24.6401 17.648 26.1881 17.648H46.0481C47.6241 17.648 49.0481 18.592 49.6641 20.036L53.3401 28.668C54.3161 30.484 53.7481 32.78 52.0361 33.848ZM33.3641 54.348H38.6041V45.18H33.3641V54.348ZM51.7041 36.848V50.416C51.7041 52.576 49.9321 54.348 47.7721 54.348H41.2121V45.18C41.2121 43.74 40.0401 42.552 38.5841 42.552H33.3441C31.9041 42.552 30.7161 43.724 30.7161 45.18V54.352H24.1561C21.9961 54.352 20.2241 52.58 20.2241 50.42V36.848C22.4441 37.584 24.9681 37.36 26.9801 36.188C28.6601 37.12 30.5841 37.508 32.5041 37.268C33.7201 37.116 34.8921 36.728 35.9561 36.096C37.0201 36.728 38.1921 37.132 39.4081 37.268C39.7681 37.312 40.1281 37.328 40.4881 37.328C42.0481 37.328 43.5641 36.924 44.9321 36.172C46.9761 37.372 49.4841 37.584 51.7041 36.848ZM29.4321 41.248C29.4321 40.528 28.8481 39.944 28.1281 39.944H24.1961C23.4761 39.944 22.8921 40.528 22.8921 41.248C22.8921 41.968 23.4761 42.552 24.1961 42.552H28.1281C28.8441 42.552 29.4321 41.968 29.4321 41.248Z" fill="#0070AA"/>
</svg>
