<svg width="72" height="72" viewBox="0 0 72 72" fill="none" xmlns="http://www.w3.org/2000/svg">
<rect x="0.5" y="0.5" width="71" height="71" rx="7.5" fill="#F4FCFF"/>
<rect x="0.5" y="0.5" width="71" height="71" rx="7.5" stroke="#0070AA"/>
<path fill-rule="evenodd" clip-rule="evenodd" d="M31.764 39.12H27.032L22.7 43.636C22.508 43.84 22.204 43.904 21.948 43.792C21.692 43.684 21.524 43.44 21.524 43.152V39.112H20.252C18.596 39.112 17.252 37.768 17.252 36.112V24.492C17.252 22.836 18.608 21.492 20.252 21.492H37.216C38.872 21.492 40.216 22.848 40.216 24.492V28.16H51.736C53.392 28.16 54.736 29.516 54.736 31.16V42.776C54.736 44.432 53.392 45.776 51.736 45.776H50.464V49.816C50.464 50.096 50.296 50.348 50.04 50.456C49.784 50.564 49.484 50.492 49.288 50.3L44.968 45.788H34.788C33.132 45.788 31.788 44.444 31.788 42.788V39.12H31.764ZM38.844 28.168V24.5C38.844 23.604 38.104 22.868 37.212 22.868H20.244C19.348 22.868 18.612 23.608 18.612 24.5V36.12C18.612 37.016 19.352 37.752 20.244 37.752H22.204C22.58 37.752 22.892 38.056 22.892 38.44V41.464L26.244 37.968C26.376 37.836 26.548 37.764 26.74 37.764H31.76V34.728H22.448C22.072 34.728 21.76 34.424 21.76 34.04C21.76 33.656 22.064 33.352 22.448 33.352H31.764V31.172C31.764 31.124 31.764 31.088 31.764 31.04H22.448C22.072 31.04 21.76 30.736 21.76 30.352C21.76 29.976 22.064 29.664 22.448 29.664H32.164C32.684 28.768 33.652 28.164 34.764 28.164H38.84V28.168H38.844ZM22.448 27.36C22.072 27.36 21.76 27.056 21.76 26.672C21.76 26.296 22.064 25.984 22.448 25.984H34.816C35.192 25.984 35.504 26.288 35.504 26.672C35.504 27.048 35.2 27.36 34.816 27.36H22.448ZM33.132 42.788C33.132 43.684 33.872 44.42 34.764 44.42H45.232C45.412 44.42 45.596 44.492 45.728 44.624L49.08 48.12V45.096C49.08 44.72 49.384 44.408 49.768 44.408H51.728C52.624 44.408 53.36 43.68 53.36 42.776V31.16C53.36 30.264 52.62 29.528 51.728 29.528H34.764C33.868 29.528 33.132 30.268 33.132 31.16V42.788ZM49.528 36.336C49.904 36.336 50.216 36.64 50.216 37.024C50.216 37.408 49.912 37.712 49.528 37.712H37.16C36.784 37.712 36.472 37.408 36.472 37.024C36.472 36.64 36.776 36.336 37.16 36.336H49.528ZM49.528 32.66C49.904 32.66 50.216 32.964 50.216 33.348C50.216 33.724 49.912 34.036 49.528 34.036H37.16C36.784 34.036 36.472 33.732 36.472 33.348C36.472 32.972 36.776 32.66 37.16 32.66H49.528ZM49.528 40.016C49.904 40.016 50.216 40.32 50.216 40.704C50.216 41.088 49.912 41.392 49.528 41.392H37.16C36.784 41.392 36.472 41.088 36.472 40.704C36.472 40.32 36.776 40.016 37.16 40.016H49.528Z" fill="#0070AA"/>
</svg>
